<mxfile host="app.diagrams.net" modified="2023-07-30T06:57:36.255Z" agent="Mozilla/5.0 (Macintosh; Intel Mac OS X 10_15_7) AppleWebKit/537.36 (KHTML, like Gecko) Chrome/114.0.0.0 Safari/537.36" etag="PjLn0fkgi-mBNe6Lv_-_" version="21.6.6" type="github">
  <diagram name="Page-1" id="74e2e168-ea6b-b213-b513-2b3c1d86103e">
    <mxGraphModel dx="1434" dy="629" grid="1" gridSize="10" guides="1" tooltips="1" connect="1" arrows="1" fold="1" page="1" pageScale="1" pageWidth="1100" pageHeight="850" background="none" math="0" shadow="0">
      <root>
        <mxCell id="0" />
        <mxCell id="1" parent="0" />
        <mxCell id="77e6c97f196da883-1" value="Render &amp;amp; Encoder" style="swimlane;html=1;childLayout=stackLayout;startSize=20;rounded=0;shadow=0;labelBackgroundColor=none;strokeWidth=1;fontFamily=Verdana;fontSize=8;align=center;" parent="1" vertex="1">
          <mxGeometry x="70" y="40" width="970" height="750" as="geometry" />
        </mxCell>
        <mxCell id="77e6c97f196da883-2" value="GLAutoRecordFragment" style="swimlane;html=1;startSize=20;fillColor=#d5e8d4;strokeColor=#82b366;" parent="77e6c97f196da883-1" vertex="1">
          <mxGeometry y="20" width="160" height="730" as="geometry" />
        </mxCell>
        <mxCell id="bkTRhVgPfacqsqEbZmdu-5" value="onSurfaceCreated" style="rounded=1;whiteSpace=wrap;html=1;shadow=0;labelBackgroundColor=none;strokeWidth=1;fontFamily=Verdana;fontSize=8;align=center;" vertex="1" parent="77e6c97f196da883-2">
          <mxGeometry x="10" y="70" width="140" height="40" as="geometry" />
        </mxCell>
        <mxCell id="bkTRhVgPfacqsqEbZmdu-12" value="onDraw" style="rounded=1;whiteSpace=wrap;html=1;shadow=0;labelBackgroundColor=none;strokeWidth=1;fontFamily=Verdana;fontSize=8;align=center;" vertex="1" parent="77e6c97f196da883-2">
          <mxGeometry x="10" y="180" width="140" height="40" as="geometry" />
        </mxCell>
        <mxCell id="77e6c97f196da883-40" style="edgeStyle=orthogonalEdgeStyle;rounded=1;html=1;labelBackgroundColor=none;startArrow=none;startFill=0;startSize=5;endArrow=classicThin;endFill=1;endSize=5;jettySize=auto;orthogonalLoop=1;strokeWidth=1;fontFamily=Verdana;fontSize=8" parent="77e6c97f196da883-1" source="77e6c97f196da883-23" target="77e6c97f196da883-24" edge="1">
          <mxGeometry relative="1" as="geometry" />
        </mxCell>
        <mxCell id="77e6c97f196da883-3" value="GLPreview" style="swimlane;html=1;startSize=20;fillColor=#ffe6cc;strokeColor=#d79b00;" parent="77e6c97f196da883-1" vertex="1">
          <mxGeometry x="160" y="20" width="170" height="730" as="geometry" />
        </mxCell>
        <mxCell id="bkTRhVgPfacqsqEbZmdu-4" value="RenderThread" style="swimlane;whiteSpace=wrap;html=1;fillColor=#ffe6cc;strokeColor=#d79b00;" vertex="1" parent="77e6c97f196da883-3">
          <mxGeometry x="10" y="40" width="150" height="440" as="geometry" />
        </mxCell>
        <mxCell id="bkTRhVgPfacqsqEbZmdu-3" value="onSurfaceCreated" style="rounded=1;whiteSpace=wrap;html=1;shadow=0;labelBackgroundColor=none;strokeWidth=1;fontFamily=Verdana;fontSize=8;align=center;" vertex="1" parent="bkTRhVgPfacqsqEbZmdu-4">
          <mxGeometry x="5" y="30" width="135" height="40" as="geometry" />
        </mxCell>
        <mxCell id="bkTRhVgPfacqsqEbZmdu-13" value="onDrawFrame" style="rounded=1;whiteSpace=wrap;html=1;shadow=0;labelBackgroundColor=none;strokeWidth=1;fontFamily=Verdana;fontSize=8;align=center;" vertex="1" parent="bkTRhVgPfacqsqEbZmdu-4">
          <mxGeometry x="5" y="140" width="140" height="40" as="geometry" />
        </mxCell>
        <mxCell id="77e6c97f196da883-4" value="StitchNativeProxy" style="swimlane;html=1;startSize=20;fillColor=#fa6800;strokeColor=#C73500;fontColor=#000000;" parent="77e6c97f196da883-1" vertex="1">
          <mxGeometry x="330" y="20" width="160" height="730" as="geometry" />
        </mxCell>
        <mxCell id="bkTRhVgPfacqsqEbZmdu-14" value="nativeInit" style="rounded=1;whiteSpace=wrap;html=1;shadow=0;labelBackgroundColor=none;strokeWidth=1;fontFamily=Verdana;fontSize=8;align=center;" vertex="1" parent="77e6c97f196da883-4">
          <mxGeometry x="10" y="70" width="140" height="40" as="geometry" />
        </mxCell>
        <mxCell id="77e6c97f196da883-5" value="TextureVideoRecorder" style="swimlane;html=1;startSize=20;fillColor=#f8cecc;strokeColor=#b85450;" parent="77e6c97f196da883-1" vertex="1">
          <mxGeometry x="490" y="20" width="160" height="730" as="geometry" />
        </mxCell>
        <mxCell id="bkTRhVgPfacqsqEbZmdu-8" value="EncodeThread" style="swimlane;whiteSpace=wrap;html=1;fillColor=#f8cecc;strokeColor=#b85450;" vertex="1" parent="77e6c97f196da883-5">
          <mxGeometry x="5" y="180" width="150" height="300" as="geometry" />
        </mxCell>
        <mxCell id="bkTRhVgPfacqsqEbZmdu-10" value="init" style="rounded=1;whiteSpace=wrap;html=1;shadow=0;labelBackgroundColor=none;strokeWidth=1;fontFamily=Verdana;fontSize=8;align=center;" vertex="1" parent="77e6c97f196da883-5">
          <mxGeometry x="10" y="120" width="140" height="40" as="geometry" />
        </mxCell>
        <mxCell id="77e6c97f196da883-6" value="VideoEncoder" style="swimlane;html=1;startSize=20;fillColor=#a20025;strokeColor=#6F0000;fontColor=#000000;" parent="77e6c97f196da883-1" vertex="1">
          <mxGeometry x="650" y="20" width="160" height="730" as="geometry" />
        </mxCell>
        <mxCell id="77e6c97f196da883-18" value="" style="rounded=1;whiteSpace=wrap;html=1;shadow=0;labelBackgroundColor=none;strokeWidth=1;fontFamily=Verdana;fontSize=8;align=center;" parent="77e6c97f196da883-6" vertex="1">
          <mxGeometry x="30" y="400" width="100" height="60" as="geometry" />
        </mxCell>
        <mxCell id="77e6c97f196da883-21" value="" style="rounded=1;whiteSpace=wrap;html=1;shadow=0;labelBackgroundColor=none;strokeWidth=1;fontFamily=Verdana;fontSize=8;align=center;" parent="77e6c97f196da883-6" vertex="1">
          <mxGeometry x="30" y="480" width="100" height="60" as="geometry" />
        </mxCell>
        <mxCell id="77e6c97f196da883-22" value="" style="rounded=1;whiteSpace=wrap;html=1;shadow=0;labelBackgroundColor=none;strokeWidth=1;fontFamily=Verdana;fontSize=8;align=center;" parent="77e6c97f196da883-6" vertex="1">
          <mxGeometry x="30" y="560" width="100" height="60" as="geometry" />
        </mxCell>
        <mxCell id="77e6c97f196da883-23" value="" style="rounded=1;whiteSpace=wrap;html=1;shadow=0;labelBackgroundColor=none;strokeWidth=1;fontFamily=Verdana;fontSize=8;align=center;" parent="77e6c97f196da883-6" vertex="1">
          <mxGeometry x="30" y="640" width="100" height="60" as="geometry" />
        </mxCell>
        <mxCell id="77e6c97f196da883-37" style="edgeStyle=orthogonalEdgeStyle;rounded=1;html=1;labelBackgroundColor=none;startArrow=none;startFill=0;startSize=5;endArrow=classicThin;endFill=1;endSize=5;jettySize=auto;orthogonalLoop=1;strokeWidth=1;fontFamily=Verdana;fontSize=8" parent="77e6c97f196da883-6" source="77e6c97f196da883-18" target="77e6c97f196da883-21" edge="1">
          <mxGeometry relative="1" as="geometry" />
        </mxCell>
        <mxCell id="77e6c97f196da883-38" style="edgeStyle=orthogonalEdgeStyle;rounded=1;html=1;labelBackgroundColor=none;startArrow=none;startFill=0;startSize=5;endArrow=classicThin;endFill=1;endSize=5;jettySize=auto;orthogonalLoop=1;strokeWidth=1;fontFamily=Verdana;fontSize=8" parent="77e6c97f196da883-6" source="77e6c97f196da883-21" target="77e6c97f196da883-22" edge="1">
          <mxGeometry relative="1" as="geometry" />
        </mxCell>
        <mxCell id="77e6c97f196da883-7" value="FrameDrawer" style="swimlane;html=1;startSize=20;fillColor=#b1ddf0;strokeColor=#10739e;" parent="77e6c97f196da883-1" vertex="1">
          <mxGeometry x="810" y="20" width="160" height="730" as="geometry" />
        </mxCell>
        <mxCell id="77e6c97f196da883-24" value="" style="rounded=1;whiteSpace=wrap;html=1;shadow=0;labelBackgroundColor=none;strokeWidth=1;fontFamily=Verdana;fontSize=8;align=center;" parent="77e6c97f196da883-7" vertex="1">
          <mxGeometry x="30" y="640" width="100" height="60" as="geometry" />
        </mxCell>
        <mxCell id="bkTRhVgPfacqsqEbZmdu-6" value="" style="edgeStyle=orthogonalEdgeStyle;rounded=0;orthogonalLoop=1;jettySize=auto;html=1;" edge="1" parent="77e6c97f196da883-1" source="bkTRhVgPfacqsqEbZmdu-5" target="bkTRhVgPfacqsqEbZmdu-3">
          <mxGeometry relative="1" as="geometry" />
        </mxCell>
        <mxCell id="bkTRhVgPfacqsqEbZmdu-11" style="edgeStyle=orthogonalEdgeStyle;rounded=0;orthogonalLoop=1;jettySize=auto;html=1;entryX=0;entryY=0.5;entryDx=0;entryDy=0;" edge="1" parent="77e6c97f196da883-1" source="bkTRhVgPfacqsqEbZmdu-5" target="bkTRhVgPfacqsqEbZmdu-10">
          <mxGeometry relative="1" as="geometry">
            <Array as="points">
              <mxPoint x="80" y="160" />
            </Array>
          </mxGeometry>
        </mxCell>
        <mxCell id="bkTRhVgPfacqsqEbZmdu-15" value="" style="edgeStyle=orthogonalEdgeStyle;rounded=0;orthogonalLoop=1;jettySize=auto;html=1;" edge="1" parent="77e6c97f196da883-1" source="bkTRhVgPfacqsqEbZmdu-3" target="bkTRhVgPfacqsqEbZmdu-14">
          <mxGeometry relative="1" as="geometry" />
        </mxCell>
      </root>
    </mxGraphModel>
  </diagram>
</mxfile>
